HIERARCHY
ROOT Hips
{
	OFFSET -0.001795 -0.223333 0.028219
	CHANNELS 6 Xposition Yposition Zposition Zrotation Yrotation Xrotation 
	JOINT LeftUpLeg
	{
		OFFSET 0.069520 -0.091406 -0.006815
		CHANNELS 3 Zrotation Yrotation Xrotation
		JOINT LeftLeg
		{
			OFFSET 0.034277 -0.375199 -0.004496
			CHANNELS 3 Zrotation Yrotation Xrotation
			JOINT LeftFoot
			{
				OFFSET -0.013596 -0.397961 -0.043693
				CHANNELS 3 Zrotation Yrotation Xrotation
				JOINT LeftToe
				{
					OFFSET 0.026358 -0.055791 0.119288
					CHANNELS 3 Zrotation Yrotation Xrotation
					End Site
					{
						OFFSET 0.000000 0.000000 0.000000
					}
				}
			}
		}
	}
	JOINT RightUpLeg
	{
		OFFSET -0.067670 -0.090522 -0.004320
		CHANNELS 3 Zrotation Yrotation Xrotation
		JOINT RightLeg
		{
			OFFSET -0.038290 -0.382569 -0.008850
			CHANNELS 3 Zrotation Yrotation Xrotation
			JOINT RightFoot
			{
				OFFSET 0.015774 -0.398415 -0.042312
				CHANNELS 3 Zrotation Yrotation Xrotation
				JOINT RightToe
				{
					OFFSET -0.025372 -0.048144 0.123348
					CHANNELS 3 Zrotation Yrotation Xrotation
					End Site
					{
						OFFSET 0.000000 0.000000 0.000000
					}
				}
			}
		}
	}
	JOINT Spine
	{
		OFFSET -0.002533 0.108963 -0.026696
		CHANNELS 3 Zrotation Yrotation Xrotation
		JOINT Spine1
		{
			OFFSET 0.005487 0.135180 0.001092
			CHANNELS 3 Zrotation Yrotation Xrotation
			JOINT Spine2
			{
				OFFSET 0.001457 0.052922 0.025425
				CHANNELS 3 Zrotation Yrotation Xrotation
				JOINT Neck
				{
					OFFSET -0.002778 0.213870 -0.042857
					CHANNELS 3 Zrotation Yrotation Xrotation
					JOINT Head
					{
						OFFSET 0.005152 0.064970 0.051349
						CHANNELS 3 Zrotation Yrotation Xrotation
						End Site
						{
							OFFSET 0.000000 0.000000 0.000000
						}
					}
				}
				JOINT LeftShoulder
				{
					OFFSET 0.078845 0.121749 -0.034090
					CHANNELS 3 Zrotation Yrotation Xrotation
					JOINT LeftArm
					{
						OFFSET 0.090977 0.030469 -0.008868
						CHANNELS 3 Zrotation Yrotation Xrotation
						JOINT LeftForeArm
						{
							OFFSET 0.259612 -0.012772 -0.027456
							CHANNELS 3 Zrotation Yrotation Xrotation
							JOINT LeftHand
							{
								OFFSET 0.249234 0.008986 -0.001171
								CHANNELS 3 Zrotation Yrotation Xrotation
								End Site
								{
									OFFSET 0.000000 0.000000 0.000000
								}
							}
						}
					}
				}
				JOINT RightShoulder
				{
					OFFSET -0.081759 0.118833 -0.038615
					CHANNELS 3 Zrotation Yrotation Xrotation
					JOINT RightArm
					{
						OFFSET -0.096012 0.032551 -0.009143
						CHANNELS 3 Zrotation Yrotation Xrotation
						JOINT RightForeArm
						{
							OFFSET -0.253742 -0.013329 -0.021401
							CHANNELS 3 Zrotation Yrotation Xrotation
							JOINT RightHand
							{
								OFFSET -0.255298 0.007772 -0.005559
								CHANNELS 3 Zrotation Yrotation Xrotation
								End Site
								{
									OFFSET 0.000000 0.000000 0.000000
								}
							}
						}
					}
				}
			}
		}
	}
}
MOTION
Frames: 10
Frame Time: 0.050000
0.133550 0.920885 0.466784 -0.982249 7.756945 3.117652 11.839837 -0.406755 -17.146178 -8.208348 1.040455 11.213916 6.410259 15.390435 10.921530 0.000000 0.000000 0.000000 -11.706229 0.004792 -11.678825 8.627415 -1.408686 6.844998 -8.874130 -20.368373 15.968172 0.000000 0.000000 0.000000 -2.563380 -2.131661 42.684696 -5.464467 1.906621 -27.015939 -4.276580 10.528700 22.683938 17.624833 -2.605140 -43.397567 0.000000 0.000000 0.000000 -8.523481 -32.221161 11.121237 -30.202559 -42.403975 4.522653 44.165740 -68.208680 -30.196589 0.000000 0.000000 0.000000 18.868141 17.860055 12.320721 45.318479 59.346370 18.687710 -36.546519 63.616597 -16.148401 0.000000 0.000000 0.000000 
0.133371 0.921339 0.465670 -1.051574 8.019274 3.322029 11.863209 -0.422963 -17.218821 -8.119734 1.004629 10.691145 6.262154 15.207590 11.073563 0.000000 0.000000 0.000000 -11.674941 -0.000866 -11.996705 8.699038 -1.435876 6.951292 -9.004092 -20.530151 16.315722 0.000000 0.000000 0.000000 -2.335233 -2.281140 42.822208 -5.277925 1.871336 -26.948005 -4.326698 10.598318 22.534196 17.920905 -2.778311 -42.974988 0.000000 0.000000 0.000000 -9.093659 -32.789334 11.412883 -29.665205 -42.484425 4.438955 45.029313 -67.840433 -30.616147 0.000000 0.000000 0.000000 19.374217 18.145156 12.681890 44.429744 59.439206 18.180329 -37.088427 62.804983 -16.244229 0.000000 0.000000 0.000000 
0.133323 0.921759 0.464817 -0.972966 8.216759 3.488952 11.714762 -0.451427 -17.232836 -8.024354 0.972104 10.232798 6.140696 15.063891 11.236982 0.000000 0.000000 0.000000 -11.722462 -0.012590 -12.161665 8.618923 -1.423872 6.917027 -9.102329 -20.651781 16.555148 0.000000 0.000000 0.000000 -1.916171 -2.491553 42.908181 -5.366032 1.887969 -27.004639 -4.434904 10.670387 22.574702 18.281758 -2.969079 -42.687402 0.000000 0.000000 0.000000 -9.801058 -33.314172 11.713772 -29.310854 -42.525189 4.393017 45.162004 -67.672726 -30.588392 0.000000 0.000000 0.000000 20.244839 18.001952 12.918471 44.233060 59.005651 17.708240 -37.125807 62.455212 -16.100033 0.000000 0.000000 0.000000 
0.133332 0.922153 0.464533 -0.911600 8.352170 3.655591 11.682660 -0.465472 -17.254229 -8.091747 0.972031 9.870644 6.055390 14.970390 11.395556 0.000000 0.000000 0.000000 -11.814058 -0.028056 -12.409276 8.649160 -1.441447 7.067353 -9.169387 -20.730304 16.759824 0.000000 0.000000 0.000000 -1.776652 -2.561012 42.825917 -5.157210 1.853429 -26.818431 -4.532639 10.740743 22.444514 18.593492 -3.214562 -42.001035 0.000000 0.000000 0.000000 -10.494094 -33.708745 11.962480 -29.053918 -42.008967 4.277578 45.815220 -67.968009 -31.234879 0.000000 0.000000 0.000000 21.405234 18.052948 13.351771 43.874913 58.105127 16.880512 -36.132578 62.003607 -15.342596 0.000000 0.000000 0.000000 
0.133312 0.922657 0.464785 -0.801218 8.471869 3.697722 11.571327 -0.480614 -17.068779 -8.112922 0.963322 9.471245 5.960402 14.855936 11.535794 0.000000 0.000000 0.000000 -11.901838 -0.043749 -12.464377 8.598042 -1.441575 7.193951 -9.216181 -20.781725 16.908917 0.000000 0.000000 0.000000 -1.518897 -2.692793 42.907841 -5.164237 1.853417 -26.892817 -4.439016 10.602688 22.631588 18.580603 -3.307013 -41.627051 0.000000 0.000000 0.000000 -11.053318 -33.722382 12.068036 -29.202327 -41.339553 4.212746 45.858169 -68.657141 -31.612761 0.000000 0.000000 0.000000 22.367559 17.891247 13.542906 44.418855 57.039322 16.451915 -33.668029 62.101719 -13.855388 0.000000 0.000000 0.000000 
0.133292 0.923190 0.465404 -0.601918 8.486131 3.781177 11.395041 -0.498620 -16.953148 -8.173049 0.967379 9.220405 5.916574 14.821167 11.723313 0.000000 0.000000 0.000000 -12.081406 -0.064771 -12.535303 8.544872 -1.436475 7.298229 -9.214199 -20.769475 16.998411 0.000000 0.000000 0.000000 -1.376072 -2.724148 42.657913 -5.007040 1.831487 -26.612343 -4.596840 10.591386 22.618485 18.679462 -3.399249 -41.349174 0.000000 0.000000 0.000000 -11.599466 -33.704980 12.129009 -29.142596 -40.483067 4.071441 44.905338 -68.979953 -31.098301 0.000000 0.000000 0.000000 23.483714 17.613007 13.744945 45.073487 55.868992 16.026928 -31.316113 62.193208 -12.415569 0.000000 0.000000 0.000000 
0.133319 0.923679 0.466096 -0.518065 8.423784 3.803817 11.299291 -0.503895 -16.845705 -8.155096 0.964193 9.115343 5.915878 14.836863 11.854821 0.000000 0.000000 0.000000 -12.045947 -0.058942 -12.601466 8.331910 -1.399788 7.457352 -9.179500 -20.713667 17.054923 0.000000 0.000000 0.000000 -1.038448 -2.826589 42.422972 -5.102030 1.852098 -26.564120 -4.563432 10.568707 22.700572 18.781692 -3.565793 -40.808758 0.000000 0.000000 0.000000 -12.247317 -33.526207 12.142978 -29.007711 -39.364010 3.854941 43.628222 -69.447507 -30.402591 0.000000 0.000000 0.000000 24.321600 17.162688 13.725986 45.527031 54.606996 15.465900 -28.669515 62.973732 -10.952462 0.000000 0.000000 0.000000 
0.133490 0.924213 0.466618 -0.419663 8.391785 3.851108 11.126447 -0.515240 -16.535210 -8.053472 0.937192 8.586029 5.889836 14.814637 11.981442 0.000000 0.000000 0.000000 -11.995988 -0.052135 -12.656588 8.046793 -1.345799 7.549462 -9.160298 -20.676382 17.147852 0.000000 0.000000 0.000000 -0.754204 -2.895249 42.032824 -4.975800 1.835950 -26.257012 -4.702570 10.538190 22.711108 18.855855 -3.652297 -40.536325 0.000000 0.000000 0.000000 -12.539877 -33.518475 12.179397 -28.990085 -38.490945 3.705513 42.408544 -69.447169 -29.508409 0.000000 0.000000 0.000000 24.922055 16.884022 13.750456 45.222494 53.877799 14.850110 -27.181130 63.313643 -10.103048 0.000000 0.000000 0.000000 
0.133745 0.924748 0.466989 -0.363900 8.281133 3.927760 10.959531 -0.522972 -16.234136 -7.884964 0.901926 8.021722 5.903411 14.848222 12.116578 0.000000 0.000000 0.000000 -11.955078 -0.042536 -12.762712 7.844829 -1.304266 7.608742 -9.100798 -20.580879 17.264615 0.000000 0.000000 0.000000 -0.517667 -2.925594 41.587083 -4.927507 1.827741 -26.130414 -4.675036 10.392291 22.783343 18.922340 -3.709878 -40.525000 0.000000 0.000000 0.000000 -12.810096 -33.255522 12.130780 -29.080191 -38.044781 3.646527 40.805538 -69.211065 -28.148784 0.000000 0.000000 0.000000 25.355875 16.548953 13.615596 45.144931 53.102195 14.355844 -25.405687 63.996483 -9.159530 0.000000 0.000000 0.000000 
0.134020 0.925053 0.467109 -0.306557 8.230310 4.046987 10.851495 -0.532165 -16.144440 -7.827135 0.887326 7.687962 5.910176 14.872640 12.219862 0.000000 0.000000 0.000000 -12.014867 -0.046425 -12.872606 7.808120 -1.294002 7.585496 -9.074359 -20.534302 17.366791 0.000000 0.000000 0.000000 -0.355902 -2.934092 41.131402 -4.843427 1.809834 -26.082392 -4.661708 10.377173 22.960243 18.644176 -3.625072 -40.338911 0.000000 0.000000 0.000000 -12.798383 -33.168781 12.094815 -29.261167 -37.895180 3.643337 39.748533 -69.146667 -27.328556 0.000000 0.000000 0.000000 25.399448 16.139133 13.379579 45.432136 52.647266 14.239986 -24.808245 64.753758 -8.858059 0.000000 0.000000 0.000000 
